<mxfile host="Electron" agent="Mozilla/5.0 (Windows NT 10.0; Win64; x64) AppleWebKit/537.36 (KHTML, like Gecko) draw.io/27.0.9 Chrome/134.0.6998.205 Electron/35.4.0 Safari/537.36" version="27.0.9">
  <diagram name="Page-1" id="x6DoefHhCO3vhEc93dQ7">
    <mxGraphModel dx="1042" dy="626" grid="1" gridSize="10" guides="1" tooltips="1" connect="1" arrows="1" fold="1" page="1" pageScale="1" pageWidth="850" pageHeight="1100" math="0" shadow="0">
      <root>
        <mxCell id="0" />
        <mxCell id="1" parent="0" />
        <mxCell id="BbU4oHbTa_t4IC8CORKj-1" value="&lt;font style=&quot;font-size: 19px;&quot;&gt;&lt;b&gt;Integration model&lt;/b&gt;&lt;/font&gt;" style="text;html=1;align=center;verticalAlign=middle;whiteSpace=wrap;rounded=0;strokeWidth=7;" vertex="1" parent="1">
          <mxGeometry x="130" y="10" width="180" height="30" as="geometry" />
        </mxCell>
        <mxCell id="BbU4oHbTa_t4IC8CORKj-2" value="&lt;font style=&quot;font-size: 17px;&quot;&gt;crm_cust_info&lt;/font&gt;" style="swimlane;fontStyle=0;childLayout=stackLayout;horizontal=1;startSize=30;horizontalStack=0;resizeParent=1;resizeParentMax=0;resizeLast=0;collapsible=1;marginBottom=0;whiteSpace=wrap;html=1;rounded=1;fillColor=#cce5ff;strokeColor=#36393d;strokeWidth=0;" vertex="1" parent="1">
          <mxGeometry x="410" y="160" width="150" height="80" as="geometry" />
        </mxCell>
        <mxCell id="BbU4oHbTa_t4IC8CORKj-26" style="edgeStyle=orthogonalEdgeStyle;rounded=0;orthogonalLoop=1;jettySize=auto;html=1;exitX=1;exitY=0.5;exitDx=0;exitDy=0;" edge="1" parent="BbU4oHbTa_t4IC8CORKj-2" source="BbU4oHbTa_t4IC8CORKj-3">
          <mxGeometry relative="1" as="geometry">
            <mxPoint x="230" y="-40" as="targetPoint" />
          </mxGeometry>
        </mxCell>
        <mxCell id="BbU4oHbTa_t4IC8CORKj-30" style="edgeStyle=orthogonalEdgeStyle;rounded=0;orthogonalLoop=1;jettySize=auto;html=1;exitX=1;exitY=0.5;exitDx=0;exitDy=0;" edge="1" parent="BbU4oHbTa_t4IC8CORKj-2" source="BbU4oHbTa_t4IC8CORKj-3">
          <mxGeometry relative="1" as="geometry">
            <mxPoint x="280" y="80" as="targetPoint" />
          </mxGeometry>
        </mxCell>
        <mxCell id="BbU4oHbTa_t4IC8CORKj-3" value="&lt;font style=&quot;font-size: 17px;&quot;&gt;cst_id&lt;/font&gt;&lt;div&gt;&lt;font style=&quot;font-size: 17px;&quot;&gt;cst_key&lt;/font&gt;&lt;/div&gt;" style="text;strokeColor=none;fillColor=none;align=left;verticalAlign=middle;spacingLeft=4;spacingRight=4;overflow=hidden;points=[[0,0.5],[1,0.5]];portConstraint=eastwest;rotatable=0;whiteSpace=wrap;html=1;strokeWidth=20;" vertex="1" parent="BbU4oHbTa_t4IC8CORKj-2">
          <mxGeometry y="30" width="150" height="50" as="geometry" />
        </mxCell>
        <mxCell id="BbU4oHbTa_t4IC8CORKj-6" value="&lt;font style=&quot;font-size: 14px;&quot;&gt;Customer information&lt;/font&gt;" style="text;html=1;align=center;verticalAlign=middle;whiteSpace=wrap;rounded=0;strokeWidth=4;" vertex="1" parent="1">
          <mxGeometry x="410" y="130" width="160" height="30" as="geometry" />
        </mxCell>
        <mxCell id="BbU4oHbTa_t4IC8CORKj-33" style="edgeStyle=orthogonalEdgeStyle;rounded=0;orthogonalLoop=1;jettySize=auto;html=1;exitX=1;exitY=0.5;exitDx=0;exitDy=0;entryX=0;entryY=0.25;entryDx=0;entryDy=0;" edge="1" parent="1" source="BbU4oHbTa_t4IC8CORKj-7" target="BbU4oHbTa_t4IC8CORKj-24">
          <mxGeometry relative="1" as="geometry" />
        </mxCell>
        <mxCell id="BbU4oHbTa_t4IC8CORKj-7" value="&lt;span style=&quot;font-size: 17px;&quot;&gt;crm_prd_info&lt;/span&gt;" style="swimlane;fontStyle=0;childLayout=stackLayout;horizontal=1;startSize=30;horizontalStack=0;resizeParent=1;resizeParentMax=0;resizeLast=0;collapsible=1;marginBottom=0;whiteSpace=wrap;html=1;rounded=1;fillColor=#cce5ff;strokeColor=#36393d;" vertex="1" parent="1">
          <mxGeometry x="420" y="390" width="140" height="60" as="geometry" />
        </mxCell>
        <mxCell id="BbU4oHbTa_t4IC8CORKj-8" value="&lt;span style=&quot;font-size: 17px;&quot;&gt;prd_key&lt;/span&gt;" style="text;strokeColor=none;fillColor=none;align=left;verticalAlign=middle;spacingLeft=4;spacingRight=4;overflow=hidden;points=[[0,0.5],[1,0.5]];portConstraint=eastwest;rotatable=0;whiteSpace=wrap;html=1;strokeWidth=20;" vertex="1" parent="BbU4oHbTa_t4IC8CORKj-7">
          <mxGeometry y="30" width="140" height="30" as="geometry" />
        </mxCell>
        <mxCell id="BbU4oHbTa_t4IC8CORKj-9" value="&lt;font style=&quot;font-size: 14px;&quot;&gt;Current and history product information&lt;/font&gt;" style="text;html=1;align=center;verticalAlign=middle;whiteSpace=wrap;rounded=0;strokeWidth=4;" vertex="1" parent="1">
          <mxGeometry x="390" y="350" width="210" height="30" as="geometry" />
        </mxCell>
        <mxCell id="BbU4oHbTa_t4IC8CORKj-10" value="&lt;span style=&quot;font-size: 17px;&quot;&gt;crm_sales_details&lt;/span&gt;" style="swimlane;fontStyle=0;childLayout=stackLayout;horizontal=1;startSize=30;horizontalStack=0;resizeParent=1;resizeParentMax=0;resizeLast=0;collapsible=1;marginBottom=0;whiteSpace=wrap;html=1;rounded=1;fillColor=#cce5ff;strokeColor=#36393d;" vertex="1" parent="1">
          <mxGeometry x="70" y="260" width="160" height="70" as="geometry" />
        </mxCell>
        <mxCell id="BbU4oHbTa_t4IC8CORKj-11" value="&lt;font style=&quot;font-size: 17px;&quot;&gt;cst_id&lt;/font&gt;&lt;div&gt;&lt;font style=&quot;font-size: 17px;&quot;&gt;prd_key&lt;/font&gt;&lt;/div&gt;" style="text;strokeColor=none;fillColor=none;align=left;verticalAlign=middle;spacingLeft=4;spacingRight=4;overflow=hidden;points=[[0,0.5],[1,0.5]];portConstraint=eastwest;rotatable=0;whiteSpace=wrap;html=1;strokeWidth=20;" vertex="1" parent="BbU4oHbTa_t4IC8CORKj-10">
          <mxGeometry y="30" width="160" height="40" as="geometry" />
        </mxCell>
        <mxCell id="BbU4oHbTa_t4IC8CORKj-12" value="&lt;font style=&quot;font-size: 14px;&quot;&gt;Transactional records about sales &amp;amp; orders&lt;/font&gt;" style="text;html=1;align=center;verticalAlign=middle;whiteSpace=wrap;rounded=0;" vertex="1" parent="1">
          <mxGeometry x="40" y="220" width="220" height="30" as="geometry" />
        </mxCell>
        <mxCell id="BbU4oHbTa_t4IC8CORKj-13" value="" style="endArrow=none;html=1;rounded=0;" edge="1" parent="1">
          <mxGeometry width="50" height="50" relative="1" as="geometry">
            <mxPoint x="230" y="290" as="sourcePoint" />
            <mxPoint x="360" y="290" as="targetPoint" />
          </mxGeometry>
        </mxCell>
        <mxCell id="BbU4oHbTa_t4IC8CORKj-14" value="" style="endArrow=none;html=1;rounded=0;" edge="1" parent="1">
          <mxGeometry width="50" height="50" relative="1" as="geometry">
            <mxPoint x="360" y="290" as="sourcePoint" />
            <mxPoint x="360" y="200" as="targetPoint" />
          </mxGeometry>
        </mxCell>
        <mxCell id="BbU4oHbTa_t4IC8CORKj-18" value="" style="endArrow=none;html=1;rounded=0;" edge="1" parent="1">
          <mxGeometry width="50" height="50" relative="1" as="geometry">
            <mxPoint x="230" y="310" as="sourcePoint" />
            <mxPoint x="360" y="310" as="targetPoint" />
            <Array as="points">
              <mxPoint x="280" y="310" />
            </Array>
          </mxGeometry>
        </mxCell>
        <mxCell id="BbU4oHbTa_t4IC8CORKj-19" value="" style="endArrow=none;html=1;rounded=0;" edge="1" parent="1">
          <mxGeometry width="50" height="50" relative="1" as="geometry">
            <mxPoint x="360" y="400" as="sourcePoint" />
            <mxPoint x="360" y="310" as="targetPoint" />
          </mxGeometry>
        </mxCell>
        <mxCell id="BbU4oHbTa_t4IC8CORKj-20" value="" style="endArrow=classic;html=1;rounded=0;" edge="1" parent="1">
          <mxGeometry width="50" height="50" relative="1" as="geometry">
            <mxPoint x="360" y="400" as="sourcePoint" />
            <mxPoint x="410" y="400" as="targetPoint" />
          </mxGeometry>
        </mxCell>
        <mxCell id="BbU4oHbTa_t4IC8CORKj-21" value="" style="endArrow=classic;html=1;rounded=0;" edge="1" parent="1">
          <mxGeometry width="50" height="50" relative="1" as="geometry">
            <mxPoint x="360" y="200" as="sourcePoint" />
            <mxPoint x="410" y="200" as="targetPoint" />
          </mxGeometry>
        </mxCell>
        <mxCell id="BbU4oHbTa_t4IC8CORKj-24" value="&lt;span style=&quot;font-size: 17px;&quot;&gt;erp_px_cat_g1v2&lt;/span&gt;" style="swimlane;fontStyle=0;childLayout=stackLayout;horizontal=1;startSize=30;horizontalStack=0;resizeParent=1;resizeParentMax=0;resizeLast=0;collapsible=1;marginBottom=0;whiteSpace=wrap;html=1;rounded=1;fillColor=#fff2cc;strokeColor=#d6b656;" vertex="1" parent="1">
          <mxGeometry x="650" y="390" width="150" height="60" as="geometry" />
        </mxCell>
        <mxCell id="BbU4oHbTa_t4IC8CORKj-25" value="&lt;span style=&quot;font-size: 17px;&quot;&gt;id&lt;/span&gt;" style="text;strokeColor=none;fillColor=none;align=left;verticalAlign=middle;spacingLeft=4;spacingRight=4;overflow=hidden;points=[[0,0.5],[1,0.5]];portConstraint=eastwest;rotatable=0;whiteSpace=wrap;html=1;strokeWidth=20;" vertex="1" parent="BbU4oHbTa_t4IC8CORKj-24">
          <mxGeometry y="30" width="150" height="30" as="geometry" />
        </mxCell>
        <mxCell id="BbU4oHbTa_t4IC8CORKj-27" value="&lt;span style=&quot;font-size: 17px;&quot;&gt;erp_cust_az12&lt;/span&gt;" style="swimlane;fontStyle=0;childLayout=stackLayout;horizontal=1;startSize=30;horizontalStack=0;resizeParent=1;resizeParentMax=0;resizeLast=0;collapsible=1;marginBottom=0;whiteSpace=wrap;html=1;rounded=1;fillColor=#fff2cc;strokeColor=#d6b656;strokeWidth=0;" vertex="1" parent="1">
          <mxGeometry x="650" y="95" width="140" height="60" as="geometry" />
        </mxCell>
        <mxCell id="BbU4oHbTa_t4IC8CORKj-29" value="&lt;span style=&quot;font-size: 17px;&quot;&gt;cid&lt;/span&gt;" style="text;strokeColor=none;fillColor=none;align=left;verticalAlign=middle;spacingLeft=4;spacingRight=4;overflow=hidden;points=[[0,0.5],[1,0.5]];portConstraint=eastwest;rotatable=0;whiteSpace=wrap;html=1;strokeWidth=20;rounded=1;" vertex="1" parent="BbU4oHbTa_t4IC8CORKj-27">
          <mxGeometry y="30" width="140" height="30" as="geometry" />
        </mxCell>
        <mxCell id="BbU4oHbTa_t4IC8CORKj-31" value="&lt;span style=&quot;font-size: 17px;&quot;&gt;erp_loc_a101&lt;/span&gt;" style="swimlane;fontStyle=0;childLayout=stackLayout;horizontal=1;startSize=30;horizontalStack=0;resizeParent=1;resizeParentMax=0;resizeLast=0;collapsible=1;marginBottom=0;whiteSpace=wrap;html=1;rounded=1;fillColor=#fff2cc;strokeColor=#d6b656;" vertex="1" parent="1">
          <mxGeometry x="690" y="220" width="150" height="60" as="geometry" />
        </mxCell>
        <mxCell id="BbU4oHbTa_t4IC8CORKj-32" value="&lt;span style=&quot;font-size: 17px;&quot;&gt;cid&lt;/span&gt;" style="text;strokeColor=none;fillColor=none;align=left;verticalAlign=middle;spacingLeft=4;spacingRight=4;overflow=hidden;points=[[0,0.5],[1,0.5]];portConstraint=eastwest;rotatable=0;whiteSpace=wrap;html=1;strokeWidth=20;" vertex="1" parent="BbU4oHbTa_t4IC8CORKj-31">
          <mxGeometry y="30" width="150" height="30" as="geometry" />
        </mxCell>
        <mxCell id="BbU4oHbTa_t4IC8CORKj-34" value="" style="rounded=1;whiteSpace=wrap;html=1;fillColor=none;" vertex="1" parent="1">
          <mxGeometry x="40" y="100" width="540" height="380" as="geometry" />
        </mxCell>
        <mxCell id="BbU4oHbTa_t4IC8CORKj-36" value="&lt;font style=&quot;font-size: 14px;&quot;&gt;Extra customer information (birthdate)&lt;/font&gt;" style="text;html=1;align=center;verticalAlign=middle;whiteSpace=wrap;rounded=0;" vertex="1" parent="1">
          <mxGeometry x="640" y="60" width="160" height="30" as="geometry" />
        </mxCell>
        <mxCell id="BbU4oHbTa_t4IC8CORKj-37" value="&lt;b&gt;&lt;font style=&quot;font-size: 21px;&quot;&gt;CRM&lt;/font&gt;&lt;/b&gt;" style="text;html=1;align=center;verticalAlign=middle;whiteSpace=wrap;rounded=1;fillColor=#dae8fc;strokeColor=#6c8ebf;" vertex="1" parent="1">
          <mxGeometry x="260" y="80" width="80" height="30" as="geometry" />
        </mxCell>
        <mxCell id="BbU4oHbTa_t4IC8CORKj-39" value="&lt;font style=&quot;font-size: 14px;&quot;&gt;Location of customers(country)&lt;/font&gt;" style="text;html=1;align=center;verticalAlign=middle;whiteSpace=wrap;rounded=0;" vertex="1" parent="1">
          <mxGeometry x="680" y="185" width="140" height="30" as="geometry" />
        </mxCell>
        <mxCell id="BbU4oHbTa_t4IC8CORKj-40" value="&lt;font style=&quot;font-size: 14px;&quot;&gt;Product categories&lt;/font&gt;" style="text;html=1;align=center;verticalAlign=middle;whiteSpace=wrap;rounded=0;strokeWidth=7;" vertex="1" parent="1">
          <mxGeometry x="660" y="360" width="130" height="30" as="geometry" />
        </mxCell>
        <mxCell id="BbU4oHbTa_t4IC8CORKj-41" value="" style="rounded=1;whiteSpace=wrap;html=1;fillColor=none;" vertex="1" parent="1">
          <mxGeometry x="620" y="50" width="220" height="430" as="geometry" />
        </mxCell>
        <mxCell id="BbU4oHbTa_t4IC8CORKj-42" value="&lt;b&gt;&lt;font style=&quot;font-size: 18px;&quot;&gt;ERP&lt;/font&gt;&lt;/b&gt;" style="text;html=1;align=center;verticalAlign=middle;whiteSpace=wrap;rounded=1;fillColor=#dae8fc;strokeColor=#6c8ebf;" vertex="1" parent="1">
          <mxGeometry x="690" y="30" width="60" height="30" as="geometry" />
        </mxCell>
      </root>
    </mxGraphModel>
  </diagram>
</mxfile>
